<mxfile host="app.diagrams.net" modified="2021-08-30T21:29:26.097Z" agent="5.0 (Windows NT 10.0; Win64; x64) AppleWebKit/537.36 (KHTML, like Gecko) Chrome/92.0.4515.159 Safari/537.36" etag="NgDFN0TJ0g5BT-Ff3Mr_" version="15.0.3" type="github">
  <diagram name="Page-1" id="2a216829-ef6e-dabb-86c1-c78162f3ba2b">
    <mxGraphModel dx="1710" dy="437" grid="1" gridSize="10" guides="1" tooltips="1" connect="1" arrows="1" fold="1" page="1" pageScale="1" pageWidth="850" pageHeight="1100" background="none" math="0" shadow="0">
      <root>
        <mxCell id="0" />
        <mxCell id="1" parent="0" />
        <mxCell id="feLGeACvyhJwC_AKLF74-2" value="Система 1" style="swimlane;horizontal=0;" vertex="1" parent="1">
          <mxGeometry x="-610" y="460" width="1030" height="350" as="geometry" />
        </mxCell>
        <mxCell id="feLGeACvyhJwC_AKLF74-24" value="Формирование витрины контента" style="points=[[0.25,0,0],[0.5,0,0],[0.75,0,0],[1,0.25,0],[1,0.5,0],[1,0.75,0],[0.75,1,0],[0.5,1,0],[0.25,1,0],[0,0.75,0],[0,0.5,0],[0,0.25,0]];shape=mxgraph.bpmn.task;whiteSpace=wrap;rectStyle=rounded;size=10;taskMarker=abstract;" vertex="1" parent="feLGeACvyhJwC_AKLF74-2">
          <mxGeometry x="490" y="100" width="120" height="80" as="geometry" />
        </mxCell>
        <mxCell id="feLGeACvyhJwC_AKLF74-34" style="edgeStyle=orthogonalEdgeStyle;rounded=0;orthogonalLoop=1;jettySize=auto;html=1;exitX=0;exitY=0.5;exitDx=0;exitDy=0;entryX=1;entryY=0.5;entryDx=0;entryDy=0;entryPerimeter=0;" edge="1" parent="feLGeACvyhJwC_AKLF74-2" source="feLGeACvyhJwC_AKLF74-33" target="feLGeACvyhJwC_AKLF74-24">
          <mxGeometry relative="1" as="geometry" />
        </mxCell>
        <mxCell id="feLGeACvyhJwC_AKLF74-33" value="База данных фильмов" style="shape=datastore;whiteSpace=wrap;html=1;labelPosition=center;verticalLabelPosition=bottom;align=center;verticalAlign=top;" vertex="1" parent="feLGeACvyhJwC_AKLF74-2">
          <mxGeometry x="740" y="90" width="100" height="100" as="geometry" />
        </mxCell>
        <mxCell id="feLGeACvyhJwC_AKLF74-3" value="Система 2" style="swimlane;horizontal=0;" vertex="1" parent="1">
          <mxGeometry x="-610" y="810" width="1030" height="400" as="geometry" />
        </mxCell>
        <mxCell id="feLGeACvyhJwC_AKLF74-9" style="edgeStyle=orthogonalEdgeStyle;rounded=0;orthogonalLoop=1;jettySize=auto;html=1;exitX=1;exitY=0.5;exitDx=0;exitDy=0;entryX=0;entryY=0.5;entryDx=0;entryDy=0;entryPerimeter=0;exitPerimeter=0;" edge="1" parent="feLGeACvyhJwC_AKLF74-3" source="feLGeACvyhJwC_AKLF74-38" target="feLGeACvyhJwC_AKLF74-8">
          <mxGeometry relative="1" as="geometry">
            <mxPoint x="255" y="150" as="sourcePoint" />
          </mxGeometry>
        </mxCell>
        <mxCell id="feLGeACvyhJwC_AKLF74-36" style="edgeStyle=orthogonalEdgeStyle;rounded=0;orthogonalLoop=1;jettySize=auto;html=1;exitX=0.25;exitY=1;exitDx=0;exitDy=0;entryX=0.24;entryY=-0.03;entryDx=0;entryDy=0;entryPerimeter=0;dashed=1;exitPerimeter=0;" edge="1" parent="feLGeACvyhJwC_AKLF74-3" source="feLGeACvyhJwC_AKLF74-38" target="feLGeACvyhJwC_AKLF74-35">
          <mxGeometry relative="1" as="geometry">
            <mxPoint x="165" y="190" as="sourcePoint" />
          </mxGeometry>
        </mxCell>
        <mxCell id="feLGeACvyhJwC_AKLF74-8" value="" style="points=[[0.25,0.25,0],[0.5,0,0],[0.75,0.25,0],[1,0.5,0],[0.75,0.75,0],[0.5,1,0],[0.25,0.75,0],[0,0.5,0]];shape=mxgraph.bpmn.gateway2;html=1;verticalLabelPosition=bottom;labelBackgroundColor=#ffffff;verticalAlign=top;align=center;perimeter=rhombusPerimeter;outlineConnect=0;outline=none;symbol=none;" vertex="1" parent="feLGeACvyhJwC_AKLF74-3">
          <mxGeometry x="340" y="125" width="50" height="50" as="geometry" />
        </mxCell>
        <mxCell id="feLGeACvyhJwC_AKLF74-17" value="Да" style="text;html=1;strokeColor=none;fillColor=none;align=center;verticalAlign=middle;whiteSpace=wrap;rounded=0;" vertex="1" parent="feLGeACvyhJwC_AKLF74-3">
          <mxGeometry x="380" y="155" width="50" height="20" as="geometry" />
        </mxCell>
        <mxCell id="feLGeACvyhJwC_AKLF74-16" value="Нет" style="text;html=1;strokeColor=none;fillColor=none;align=center;verticalAlign=middle;whiteSpace=wrap;rounded=0;" vertex="1" parent="feLGeACvyhJwC_AKLF74-3">
          <mxGeometry x="320" y="90" width="50" height="20" as="geometry" />
        </mxCell>
        <mxCell id="feLGeACvyhJwC_AKLF74-37" style="edgeStyle=orthogonalEdgeStyle;rounded=0;orthogonalLoop=1;jettySize=auto;html=1;exitX=0.737;exitY=-0.004;exitDx=0;exitDy=0;exitPerimeter=0;dashed=1;" edge="1" parent="feLGeACvyhJwC_AKLF74-3" source="feLGeACvyhJwC_AKLF74-35">
          <mxGeometry relative="1" as="geometry">
            <mxPoint x="219" y="190" as="targetPoint" />
          </mxGeometry>
        </mxCell>
        <mxCell id="feLGeACvyhJwC_AKLF74-35" value="Логины и пароли пользователей" style="shape=datastore;whiteSpace=wrap;html=1;labelPosition=center;verticalLabelPosition=bottom;align=center;verticalAlign=top;" vertex="1" parent="feLGeACvyhJwC_AKLF74-3">
          <mxGeometry x="145" y="230" width="100" height="100" as="geometry" />
        </mxCell>
        <mxCell id="feLGeACvyhJwC_AKLF74-38" value="Аутентификация пользователя" style="points=[[0.25,0,0],[0.5,0,0],[0.75,0,0],[1,0.25,0],[1,0.5,0],[1,0.75,0],[0.75,1,0],[0.5,1,0],[0.25,1,0],[0,0.75,0],[0,0.5,0],[0,0.25,0]];shape=mxgraph.bpmn.task;whiteSpace=wrap;rectStyle=rounded;size=10;taskMarker=script;" vertex="1" parent="feLGeACvyhJwC_AKLF74-3">
          <mxGeometry x="135" y="110" width="120" height="80" as="geometry" />
        </mxCell>
        <mxCell id="feLGeACvyhJwC_AKLF74-39" value="Аутентификация пользователя" style="points=[[0.25,0,0],[0.5,0,0],[0.75,0,0],[1,0.25,0],[1,0.5,0],[1,0.75,0],[0.75,1,0],[0.5,1,0],[0.25,1,0],[0,0.75,0],[0,0.5,0],[0,0.25,0]];shape=mxgraph.bpmn.task;whiteSpace=wrap;rectStyle=rounded;size=10;taskMarker=script;" vertex="1" parent="feLGeACvyhJwC_AKLF74-3">
          <mxGeometry x="490" y="110" width="120" height="80" as="geometry" />
        </mxCell>
        <mxCell id="feLGeACvyhJwC_AKLF74-4" value="Клиентское приложение" style="swimlane;horizontal=0;" vertex="1" parent="1">
          <mxGeometry x="-610" y="110" width="1030" height="350" as="geometry" />
        </mxCell>
        <mxCell id="feLGeACvyhJwC_AKLF74-6" style="edgeStyle=orthogonalEdgeStyle;rounded=0;orthogonalLoop=1;jettySize=auto;html=1;entryX=0.5;entryY=0;entryDx=0;entryDy=0;entryPerimeter=0;" edge="1" parent="feLGeACvyhJwC_AKLF74-4" source="7a84cebc1def654-1" target="feLGeACvyhJwC_AKLF74-11">
          <mxGeometry relative="1" as="geometry">
            <mxPoint x="195" y="165" as="targetPoint" />
          </mxGeometry>
        </mxCell>
        <mxCell id="7a84cebc1def654-1" value="" style="shape=mxgraph.bpmn.shape;html=1;verticalLabelPosition=bottom;labelBackgroundColor=#ffffff;verticalAlign=top;perimeter=ellipsePerimeter;outline=standard;symbol=general;" parent="feLGeACvyhJwC_AKLF74-4" vertex="1">
          <mxGeometry x="170" y="60" width="50" height="50" as="geometry" />
        </mxCell>
        <mxCell id="feLGeACvyhJwC_AKLF74-11" value="Запрос аутентификации" style="points=[[0.25,0,0],[0.5,0,0],[0.75,0,0],[1,0.25,0],[1,0.5,0],[1,0.75,0],[0.75,1,0],[0.5,1,0],[0.25,1,0],[0,0.75,0],[0,0.5,0],[0,0.25,0]];shape=mxgraph.bpmn.task;whiteSpace=wrap;rectStyle=rounded;size=10;taskMarker=user;" vertex="1" parent="feLGeACvyhJwC_AKLF74-4">
          <mxGeometry x="135" y="170" width="120" height="80" as="geometry" />
        </mxCell>
        <mxCell id="feLGeACvyhJwC_AKLF74-31" style="edgeStyle=orthogonalEdgeStyle;rounded=0;orthogonalLoop=1;jettySize=auto;html=1;exitX=1;exitY=0.5;exitDx=0;exitDy=0;exitPerimeter=0;entryX=0;entryY=0.5;entryDx=0;entryDy=0;entryPerimeter=0;" edge="1" parent="feLGeACvyhJwC_AKLF74-4" source="feLGeACvyhJwC_AKLF74-26" target="feLGeACvyhJwC_AKLF74-30">
          <mxGeometry relative="1" as="geometry" />
        </mxCell>
        <mxCell id="feLGeACvyhJwC_AKLF74-26" value="Отрисовка витрины на пользовательском устройстве" style="points=[[0.25,0,0],[0.5,0,0],[0.75,0,0],[1,0.25,0],[1,0.5,0],[1,0.75,0],[0.75,1,0],[0.5,1,0],[0.25,1,0],[0,0.75,0],[0,0.5,0],[0,0.25,0]];shape=mxgraph.bpmn.task;whiteSpace=wrap;rectStyle=rounded;size=10;taskMarker=abstract;" vertex="1" parent="feLGeACvyhJwC_AKLF74-4">
          <mxGeometry x="490" y="170" width="120" height="80" as="geometry" />
        </mxCell>
        <mxCell id="feLGeACvyhJwC_AKLF74-29" style="edgeStyle=orthogonalEdgeStyle;rounded=0;orthogonalLoop=1;jettySize=auto;html=1;exitX=0.5;exitY=1;exitDx=0;exitDy=0;exitPerimeter=0;entryX=0.5;entryY=0;entryDx=0;entryDy=0;entryPerimeter=0;" edge="1" parent="feLGeACvyhJwC_AKLF74-4" source="feLGeACvyhJwC_AKLF74-28" target="feLGeACvyhJwC_AKLF74-30">
          <mxGeometry relative="1" as="geometry" />
        </mxCell>
        <mxCell id="feLGeACvyhJwC_AKLF74-28" value="" style="points=[[0.145,0.145,0],[0.5,0,0],[0.855,0.145,0],[1,0.5,0],[0.855,0.855,0],[0.5,1,0],[0.145,0.855,0],[0,0.5,0]];shape=mxgraph.bpmn.event;html=1;verticalLabelPosition=bottom;labelBackgroundColor=#ffffff;verticalAlign=top;align=center;perimeter=ellipsePerimeter;outlineConnect=0;aspect=fixed;outline=throwing;symbol=general;" vertex="1" parent="feLGeACvyhJwC_AKLF74-4">
          <mxGeometry x="725" y="60" width="50" height="50" as="geometry" />
        </mxCell>
        <mxCell id="feLGeACvyhJwC_AKLF74-30" value="Запрос фильма" style="points=[[0.25,0,0],[0.5,0,0],[0.75,0,0],[1,0.25,0],[1,0.5,0],[1,0.75,0],[0.75,1,0],[0.5,1,0],[0.25,1,0],[0,0.75,0],[0,0.5,0],[0,0.25,0]];shape=mxgraph.bpmn.task;whiteSpace=wrap;rectStyle=rounded;size=10;taskMarker=user;" vertex="1" parent="feLGeACvyhJwC_AKLF74-4">
          <mxGeometry x="690" y="170" width="120" height="80" as="geometry" />
        </mxCell>
        <mxCell id="feLGeACvyhJwC_AKLF74-7" style="edgeStyle=orthogonalEdgeStyle;rounded=0;orthogonalLoop=1;jettySize=auto;html=1;entryX=0.5;entryY=0;entryDx=0;entryDy=0;exitX=0.5;exitY=1;exitDx=0;exitDy=0;exitPerimeter=0;startArrow=none;entryPerimeter=0;" edge="1" parent="1" source="feLGeACvyhJwC_AKLF74-11" target="feLGeACvyhJwC_AKLF74-38">
          <mxGeometry relative="1" as="geometry">
            <mxPoint x="-415" y="430" as="sourcePoint" />
            <mxPoint x="-415" y="920" as="targetPoint" />
          </mxGeometry>
        </mxCell>
        <mxCell id="feLGeACvyhJwC_AKLF74-10" style="edgeStyle=orthogonalEdgeStyle;rounded=0;orthogonalLoop=1;jettySize=auto;html=1;exitX=0.5;exitY=0;exitDx=0;exitDy=0;exitPerimeter=0;entryX=1;entryY=0.5;entryDx=0;entryDy=0;entryPerimeter=0;" edge="1" parent="1" source="feLGeACvyhJwC_AKLF74-8" target="feLGeACvyhJwC_AKLF74-11">
          <mxGeometry relative="1" as="geometry">
            <mxPoint x="-170" y="310" as="targetPoint" />
          </mxGeometry>
        </mxCell>
        <mxCell id="feLGeACvyhJwC_AKLF74-15" style="edgeStyle=orthogonalEdgeStyle;rounded=0;orthogonalLoop=1;jettySize=auto;html=1;exitX=1;exitY=0.5;exitDx=0;exitDy=0;exitPerimeter=0;" edge="1" parent="1" source="feLGeACvyhJwC_AKLF74-8">
          <mxGeometry relative="1" as="geometry">
            <mxPoint x="-120" y="960" as="targetPoint" />
          </mxGeometry>
        </mxCell>
        <mxCell id="feLGeACvyhJwC_AKLF74-25" style="edgeStyle=orthogonalEdgeStyle;rounded=0;orthogonalLoop=1;jettySize=auto;html=1;exitX=0.5;exitY=0;exitDx=0;exitDy=0;exitPerimeter=0;entryX=0.5;entryY=1;entryDx=0;entryDy=0;entryPerimeter=0;" edge="1" parent="1" target="feLGeACvyhJwC_AKLF74-24">
          <mxGeometry relative="1" as="geometry">
            <mxPoint x="-60" y="920" as="sourcePoint" />
          </mxGeometry>
        </mxCell>
        <mxCell id="feLGeACvyhJwC_AKLF74-27" style="edgeStyle=orthogonalEdgeStyle;rounded=0;orthogonalLoop=1;jettySize=auto;html=1;exitX=0.5;exitY=0;exitDx=0;exitDy=0;exitPerimeter=0;entryX=0.5;entryY=1;entryDx=0;entryDy=0;entryPerimeter=0;" edge="1" parent="1" source="feLGeACvyhJwC_AKLF74-24" target="feLGeACvyhJwC_AKLF74-26">
          <mxGeometry relative="1" as="geometry" />
        </mxCell>
      </root>
    </mxGraphModel>
  </diagram>
</mxfile>
